<mxfile host="app.diagrams.net" agent="Mozilla/5.0 (Macintosh; Intel Mac OS X 10_15_7) AppleWebKit/537.36 (KHTML, like Gecko) Chrome/131.0.0.0 Safari/537.36" version="25.0.3">
  <diagram name="Page-1" id="8aClEWyfX_VV-lluVNKH">
    <mxGraphModel dx="1974" dy="647" grid="1" gridSize="10" guides="1" tooltips="1" connect="1" arrows="1" fold="1" page="1" pageScale="1" pageWidth="827" pageHeight="1169" math="0" shadow="0">
      <root>
        <mxCell id="0" />
        <mxCell id="1" parent="0" />
        <mxCell id="xSLGstXJj4RpFk7l7EjF-11" style="edgeStyle=orthogonalEdgeStyle;rounded=0;orthogonalLoop=1;jettySize=auto;html=1;entryX=0.023;entryY=0.202;entryDx=0;entryDy=0;entryPerimeter=0;" edge="1" parent="1" source="xSLGstXJj4RpFk7l7EjF-8" target="xSLGstXJj4RpFk7l7EjF-2">
          <mxGeometry relative="1" as="geometry">
            <mxPoint x="320" y="210" as="targetPoint" />
          </mxGeometry>
        </mxCell>
        <mxCell id="xSLGstXJj4RpFk7l7EjF-8" value="" style="rounded=0;whiteSpace=wrap;html=1;" vertex="1" parent="1">
          <mxGeometry x="79.5" y="187.5" width="110" height="180" as="geometry" />
        </mxCell>
        <mxCell id="xSLGstXJj4RpFk7l7EjF-1" value="client" style="shape=umlActor;verticalLabelPosition=bottom;verticalAlign=top;html=1;outlineConnect=0;" vertex="1" parent="1">
          <mxGeometry x="-60" y="240" width="30" height="60" as="geometry" />
        </mxCell>
        <mxCell id="xSLGstXJj4RpFk7l7EjF-2" value="" style="rounded=0;whiteSpace=wrap;html=1;" vertex="1" parent="1">
          <mxGeometry x="335" y="165" width="130" height="225" as="geometry" />
        </mxCell>
        <mxCell id="xSLGstXJj4RpFk7l7EjF-4" value="Search Service" style="rounded=0;whiteSpace=wrap;html=1;" vertex="1" parent="1">
          <mxGeometry x="345" y="200" width="110" height="20" as="geometry" />
        </mxCell>
        <mxCell id="xSLGstXJj4RpFk7l7EjF-5" value="Application servers for&lt;div&gt;querying the system&lt;/div&gt;" style="text;html=1;align=center;verticalAlign=middle;resizable=0;points=[];autosize=1;strokeColor=none;fillColor=none;" vertex="1" parent="1">
          <mxGeometry x="330" y="390" width="140" height="40" as="geometry" />
        </mxCell>
        <mxCell id="xSLGstXJj4RpFk7l7EjF-7" value="" style="outlineConnect=0;dashed=0;verticalLabelPosition=bottom;verticalAlign=top;align=center;html=1;shape=mxgraph.aws3.classic_load_balancer;fillColor=#F58536;gradientColor=none;" vertex="1" parent="1">
          <mxGeometry x="100" y="234" width="69" height="72" as="geometry" />
        </mxCell>
        <mxCell id="xSLGstXJj4RpFk7l7EjF-10" style="edgeStyle=orthogonalEdgeStyle;rounded=0;orthogonalLoop=1;jettySize=auto;html=1;entryX=0.014;entryY=0.456;entryDx=0;entryDy=0;entryPerimeter=0;" edge="1" parent="1" source="xSLGstXJj4RpFk7l7EjF-1" target="xSLGstXJj4RpFk7l7EjF-8">
          <mxGeometry relative="1" as="geometry" />
        </mxCell>
        <mxCell id="xSLGstXJj4RpFk7l7EjF-12" value="Booking Catalogue" style="shape=cylinder3;whiteSpace=wrap;html=1;boundedLbl=1;backgroundOutline=1;size=15;" vertex="1" parent="1">
          <mxGeometry x="760" y="130" width="80" height="110" as="geometry" />
        </mxCell>
        <mxCell id="xSLGstXJj4RpFk7l7EjF-13" style="edgeStyle=orthogonalEdgeStyle;rounded=0;orthogonalLoop=1;jettySize=auto;html=1;entryX=0;entryY=0.25;entryDx=0;entryDy=0;" edge="1" parent="1">
          <mxGeometry relative="1" as="geometry">
            <mxPoint x="-30" y="270" as="sourcePoint" />
            <mxPoint x="80" y="233" as="targetPoint" />
          </mxGeometry>
        </mxCell>
        <mxCell id="xSLGstXJj4RpFk7l7EjF-14" value="Booking Inventory" style="shape=cylinder3;whiteSpace=wrap;html=1;boundedLbl=1;backgroundOutline=1;size=15;" vertex="1" parent="1">
          <mxGeometry x="760" y="260" width="80" height="110" as="geometry" />
        </mxCell>
        <mxCell id="xSLGstXJj4RpFk7l7EjF-15" value="search(category,&lt;div&gt;fees, location)&lt;/div&gt;" style="text;html=1;align=center;verticalAlign=middle;resizable=0;points=[];autosize=1;strokeColor=none;fillColor=none;" vertex="1" parent="1">
          <mxGeometry x="220" y="175" width="110" height="40" as="geometry" />
        </mxCell>
        <mxCell id="xSLGstXJj4RpFk7l7EjF-18" style="edgeStyle=orthogonalEdgeStyle;rounded=0;orthogonalLoop=1;jettySize=auto;html=1;exitX=1;exitY=0.25;exitDx=0;exitDy=0;entryX=-0.012;entryY=0.432;entryDx=0;entryDy=0;entryPerimeter=0;" edge="1" parent="1" source="xSLGstXJj4RpFk7l7EjF-2" target="xSLGstXJj4RpFk7l7EjF-12">
          <mxGeometry relative="1" as="geometry" />
        </mxCell>
        <mxCell id="xSLGstXJj4RpFk7l7EjF-19" style="edgeStyle=orthogonalEdgeStyle;rounded=0;orthogonalLoop=1;jettySize=auto;html=1;entryX=0;entryY=0.5;entryDx=0;entryDy=0;entryPerimeter=0;" edge="1" parent="1" source="xSLGstXJj4RpFk7l7EjF-2" target="xSLGstXJj4RpFk7l7EjF-14">
          <mxGeometry relative="1" as="geometry" />
        </mxCell>
        <mxCell id="xSLGstXJj4RpFk7l7EjF-25" style="edgeStyle=orthogonalEdgeStyle;rounded=0;orthogonalLoop=1;jettySize=auto;html=1;entryX=0.5;entryY=0;entryDx=0;entryDy=0;" edge="1" parent="1" source="xSLGstXJj4RpFk7l7EjF-20" target="xSLGstXJj4RpFk7l7EjF-2">
          <mxGeometry relative="1" as="geometry" />
        </mxCell>
        <mxCell id="xSLGstXJj4RpFk7l7EjF-20" value="Elastic search&lt;div&gt;system&lt;/div&gt;" style="shape=cylinder3;whiteSpace=wrap;html=1;boundedLbl=1;backgroundOutline=1;size=15;" vertex="1" parent="1">
          <mxGeometry x="290" y="10" width="220" height="70" as="geometry" />
        </mxCell>
        <mxCell id="xSLGstXJj4RpFk7l7EjF-21" style="edgeStyle=orthogonalEdgeStyle;rounded=0;orthogonalLoop=1;jettySize=auto;html=1;entryX=1;entryY=0.5;entryDx=0;entryDy=0;entryPerimeter=0;exitX=0.5;exitY=0;exitDx=0;exitDy=0;exitPerimeter=0;" edge="1" parent="1" source="xSLGstXJj4RpFk7l7EjF-12" target="xSLGstXJj4RpFk7l7EjF-20">
          <mxGeometry relative="1" as="geometry" />
        </mxCell>
        <mxCell id="xSLGstXJj4RpFk7l7EjF-23" style="edgeStyle=orthogonalEdgeStyle;rounded=0;orthogonalLoop=1;jettySize=auto;html=1;entryX=1;entryY=0.5;entryDx=0;entryDy=0;entryPerimeter=0;" edge="1" parent="1" source="xSLGstXJj4RpFk7l7EjF-14" target="xSLGstXJj4RpFk7l7EjF-20">
          <mxGeometry relative="1" as="geometry">
            <Array as="points">
              <mxPoint x="870" y="315" />
              <mxPoint x="870" y="45" />
            </Array>
          </mxGeometry>
        </mxCell>
        <mxCell id="xSLGstXJj4RpFk7l7EjF-24" value="Use event driven mechanism to update the elastic search" style="text;html=1;align=center;verticalAlign=middle;resizable=0;points=[];autosize=1;strokeColor=none;fillColor=none;" vertex="1" parent="1">
          <mxGeometry x="540" y="18" width="330" height="30" as="geometry" />
        </mxCell>
      </root>
    </mxGraphModel>
  </diagram>
</mxfile>
